<?xml version="1.0" encoding="utf-8"?>
<!-- Generator: Adobe Illustrator 15.0.0, SVG Export Plug-In . SVG Version: 6.00 Build 0)  -->
<!DOCTYPE svg PUBLIC "-//W3C//DTD SVG 1.1//EN" "http://www.w3.org/Graphics/SVG/1.1/DTD/svg11.dtd">
<svg version="1.1" id="图层_1" xmlns="http://www.w3.org/2000/svg" xmlns:xlink="http://www.w3.org/1999/xlink" x="0px" y="0px"
	 width="1155.799px" height="379px" viewBox="0 0 1155.799 379" enable-background="new 0 0 1155.799 379" xml:space="preserve">
<path fill="#FFFFFF" d="M136.992,137.273c1.412-0.139,2.348-0.311,3.285-0.311c30.24-0.014,60.479,0.007,90.719-0.05
	c2.131-0.004,3.426,0.7,4.56,2.506c11.284,18.003,22.655,35.952,33.967,53.938c1.146,1.824,2.153,1.804,3.646,0.373
	c33.65-32.261,67.325-64.498,100.999-96.736c0.842-0.806,1.709-1.587,3.022-2.804c0.216,1.469,0.446,2.301,0.447,3.134
	c0.017,14.916-0.021,29.832,0.033,44.748c0.007,1.875-0.606,3.216-1.938,4.497c-26.722,25.711-53.396,51.472-80.148,77.15
	c-2.101,2.018-3.163,4.018-3,7.008c0.254,4.631,0.033,9.289,0.061,13.935c0.005,0.827,0.234,1.653,0.466,3.172
	c14.31-13.302,28.126-26.146,41.945-38.99c0.282,0.083,0.563,0.167,0.846,0.25c1.044,13.192,2.089,26.386,3.133,39.578
	c0.295,0.087,0.591,0.174,0.887,0.261c27.693-26.199,55.389-52.398,83.515-79.006c0.253,1.285,0.545,2.08,0.546,2.875
	c0.022,13.53-0.026,27.061,0.041,40.592c0.01,1.938-0.831,3.174-2.119,4.414c-26.467,25.506-52.914,51.033-79.365,76.557
	c-1.375,1.326-2.754,2.649-4.131,3.975c-0.305-0.061-0.608-0.12-0.914-0.182c-1.046-13.172-2.093-26.346-3.139-39.518
	c-0.29-0.099-0.579-0.197-0.868-0.296c-25.132,24.146-50.263,48.289-75.829,72.851c-0.276-1.364-0.566-2.17-0.585-2.982
	c-0.479-20.369-0.926-40.738-1.401-61.107c-0.018-0.762-0.257-1.518-0.438-2.529c-0.714,0.385-1.194,0.519-1.501,0.824
	c-30.698,30.74-61.37,61.506-92.126,92.187c-1.063,1.062-2.954,1.804-4.469,1.817c-14.344,0.139-28.689,0.092-43.035,0.074
	c-0.839,0-1.679-0.201-3.339-0.414c51.915-52.94,103.304-105.346,155.24-158.31c-1.7-0.206-2.668-0.425-3.637-0.426
	c-27.877-0.017-55.754-0.048-83.631,0.048c-2.649,0.009-4.064-0.914-5.411-3.143c-11.66-19.296-23.453-38.515-35.199-57.759
	C137.798,138.934,137.545,138.353,136.992,137.273"/>
<path fill="#FFFFFF" d="M246.336,100.706c-0.255-19.646,15.697-37.907,37.46-38.109c22.821-0.212,38.414,19.081,38.243,38.09
	c-0.188,20.882-16.985,37.791-37.865,37.798C263.292,138.493,246.374,121.601,246.336,100.706"/>
<path fill="#FFFFFF" d="M447.576,365.646c-0.604,0.244-0.748,0.346-0.897,0.357c-4.93,0.421-4.931,0.42-4.931-4.504
	c0-12.777,0-25.557,0-38.334v-2.979h5.596c0.063,1.332,0.122,2.599,0.212,4.543c2.877-4.597,6.94-5.603,11.504-5.402
	c7.468,0.326,11.617,3.617,12.566,11.004c0.562,4.361,0.47,8.947-0.207,13.296c-1.13,7.259-6.357,11.042-13.698,10.69
	c-3.95-0.188-7.61-1.037-10.146-5.461L447.576,365.646L447.576,365.646z M447.074,336.859c-0.095,0.029-0.189,0.061-0.285,0.091
	c0.562,2.518,0.833,5.147,1.751,7.526c1.39,3.596,5.325,5.447,9.711,5.057c4.139-0.369,6.525-2.313,7.459-6.495
	c0.983-4.413,0.935-8.892-0.15-13.29c-0.666-2.701-2.32-4.705-5.155-5.309c-6.468-1.377-12.225,0.853-12.979,8.535
	C447.298,334.27,447.19,335.564,447.074,336.859"/>
<polygon fill="#FFFFFF" points="399.071,310.652 399.071,315.591 381.013,315.591 381.013,328.579 397.886,328.579 397.886,333.479 
	381.039,333.479 381.039,348.348 400.697,348.348 400.697,353.465 375.147,353.465 375.147,310.652 "/>
<path fill="#FFFFFF" d="M509.079,338.915c-0.023,7.215,2.856,10.339,9.565,10.211c3.771-0.071,7.528-0.81,11.513-1.272
	c-0.185-0.301-0.04-0.176-0.042-0.051c-0.075,5.165,1.207,4.77-4.481,5.691c-3.875,0.628-7.958,0.695-11.859,0.244
	c-5.419-0.627-8.697-4.193-9.912-9.453c-1.148-4.979-1.128-10.033,0.003-15.016c1.282-5.654,4.777-8.74,10.628-9.58
	c1.604-0.229,3.245-0.398,4.859-0.338c7.861,0.301,12.156,4.164,12.595,11.998c0.417,7.442,0.526,6.049-5.59,6.444
	C520.609,338.167,514.862,338.54,509.079,338.915 M526.422,333.396c0.228-7.842-3.219-9.851-9.911-9.295
	c-5.157,0.428-7.999,4.469-7.189,10.521C514.952,334.221,520.602,333.814,526.422,333.396"/>
<path fill="#FFFFFF" d="M404.903,353.286c2.965-4.37,5.856-8.656,8.774-12.925c2.651-3.877,2.66-3.863,0.038-7.801
	c-2.684-4.027-5.354-8.063-8.291-12.492c2.12,0,3.75-0.156,5.323,0.072c0.718,0.104,1.505,0.848,1.95,1.51
	c2.09,3.102,4.068,6.277,6.099,9.418c0.428,0.662,0.905,1.291,1.497,2.127c2.156-3.401,4.149-6.557,6.156-9.704
	c2.472-3.875,3.073-4.107,8.193-3.07c-2.925,4.397-5.606,8.849-8.727,12.966c-1.763,2.324-1.503,3.907,0.084,6.096
	c3.229,4.451,6.181,9.104,9.555,14.134c-2.172,0-3.859,0.155-5.494-0.072c-0.71-0.099-1.491-0.866-1.934-1.532
	c-2.638-3.972-5.186-8.002-7.954-12.311c-2.414,3.646-4.64,7.02-6.874,10.385C410.641,354.09,410.162,354.277,404.903,353.286"/>
<path fill="#FFFFFF" d="M560.488,320.637c-0.09,1.361-0.184,2.788-0.264,4.006c-3.683-0.192-7.132-0.556-10.573-0.496
	c-3.036,0.051-4.375,1.43-4.631,3.979c-0.258,2.565,0.622,4.035,3.106,4.826c1.932,0.614,3.938,0.993,5.883,1.569
	c6.433,1.91,8.53,4.922,7.887,11.223c-0.475,4.645-3.91,7.718-9.777,8.066c-3.713,0.219-7.477-0.164-11.199-0.483
	c-2.011-0.173-2.187-0.96-1.604-4.916c3.031,0.331,6.062,0.735,9.104,0.959c1.36,0.101,2.765-0.083,4.125-0.293
	c2.193-0.338,3.803-1.392,4.052-3.841c0.333-3.256-0.455-4.84-3.211-5.773c-2.378-0.806-4.861-1.301-7.254-2.07
	c-4.89-1.57-6.463-3.877-6.353-9.06c0.094-4.289,2.436-7.168,6.818-8.379C550.423,318.896,556.477,319.164,560.488,320.637"/>
<path fill="#FFFFFF" d="M590.357,320.43c-0.087,1.655-0.159,3.025-0.222,4.217c-3.667-0.188-7.197-0.592-10.713-0.488
	c-3.52,0.104-4.846,2.095-4.407,5.551c0.246,1.938,1.447,2.801,3.119,3.29c2.723,0.799,5.506,1.433,8.162,2.41
	c4.34,1.596,5.645,4.073,5.485,9.712c-0.108,3.947-2.133,6.611-6.068,7.893c-5.044,1.641-10.146,0.995-15.221,0.199
	c-0.523-0.083-1.168-0.984-1.305-1.605c-0.219-0.996-0.059-2.074-0.059-2.896c4.313,0.167,8.411,0.563,12.488,0.409
	c3.354-0.126,4.634-1.506,4.859-4.039c0.318-3.547-0.501-4.8-4.021-5.885c-2.095-0.645-4.251-1.084-6.339-1.745
	c-4.843-1.534-6.619-4.05-6.501-9.007c0.104-4.254,2.449-7.264,6.792-8.432C581.001,318.777,585.57,319.232,590.357,320.43"/>
<path fill="#FFFFFF" d="M481.529,320.182h5.438c0.066,1.405,0.131,2.727,0.221,4.604c2.768-4.287,6.456-5.615,11.133-5.423
	c0,0.867-0.063,1.664,0.014,2.447c0.182,1.879-0.357,2.826-2.515,2.77c-4.979-0.132-9.095,4.725-8.837,9.373
	c0.355,6.402,0.09,12.842,0.09,19.469h-5.544V320.182L481.529,320.182z"/>
<path fill="#0B5698" d="M-0.037,0l-0.165,379.023c0,0,0,0,177.55-0.012c230.129-0.015,747.073-0.004,977.202-0.005
	c0.416,0,0.833,0.011,1.248,0.017V0H-0.037z M283.928,62.597c22.81-0.211,38.396,19.081,38.225,38.09
	c-0.188,20.882-16.978,37.792-37.847,37.798c-20.873,0.007-37.784-16.885-37.821-37.779
	C246.229,81.06,262.174,62.799,283.928,62.597 M262.506,200.322c-27.864-0.016-55.729-0.047-83.594,0.048
	c-2.646,0.01-4.063-0.913-5.409-3.142c-11.654-19.297-23.441-38.516-35.183-57.76c-0.327-0.535-0.579-1.115-1.132-2.195
	c1.412-0.139,2.347-0.311,3.283-0.312c30.227-0.014,60.452,0.007,90.679-0.05c2.129-0.004,3.424,0.7,4.557,2.506
	c11.279,18.003,22.646,35.952,33.952,53.937c1.146,1.824,2.153,1.803,3.646,0.373c33.636-32.261,67.295-64.499,100.953-96.737
	c0.842-0.806,1.708-1.587,3.021-2.804c0.217,1.469,0.446,2.301,0.447,3.133c0.017,14.916-0.021,29.832,0.033,44.748
	c0.007,1.875-0.606,3.216-1.938,4.497c-26.71,25.711-53.372,51.472-80.112,77.151c-2.1,2.016-3.162,4.018-2.999,7.008
	c0.254,4.631,0.033,9.288,0.061,13.934c0.004,0.828,0.234,1.654,0.466,3.173c14.303-13.302,28.114-26.146,41.926-38.99
	c0.282,0.083,0.564,0.167,0.847,0.25c1.044,13.192,2.088,26.386,3.131,39.578c0.295,0.086,0.59,0.174,0.885,0.261
	c27.684-26.199,55.365-52.398,83.479-79.006c0.253,1.285,0.544,2.08,0.546,2.875c0.021,13.53-0.027,27.061,0.041,40.592
	c0.009,1.938-0.831,3.174-2.118,4.414c-26.456,25.506-52.891,51.034-79.33,76.557c-1.375,1.326-2.753,2.649-4.13,3.975
	c-0.305-0.061-0.608-0.12-0.912-0.182c-1.046-13.172-2.092-26.344-3.138-39.518c-0.289-0.099-0.578-0.197-0.868-0.296
	c-25.121,24.146-50.241,48.289-75.796,72.851c-0.275-1.364-0.565-2.17-0.585-2.982c-0.479-20.369-0.926-40.738-1.399-61.107
	c-0.019-0.762-0.257-1.517-0.439-2.529c-0.713,0.385-1.193,0.519-1.5,0.824c-30.685,30.739-61.343,61.506-92.085,92.187
	c-1.062,1.062-2.953,1.804-4.466,1.817c-14.338,0.139-28.677,0.092-43.017,0.074c-0.84,0-1.678-0.201-3.337-0.414
	c51.893-52.941,103.258-105.346,155.172-158.31C264.442,200.543,263.474,200.324,262.506,200.322"/>
<g>
	<path fill="#FFFFFF" d="M504.899,138.42l11.906,3.469c-2.126,6.875-4.47,13.469-7.031,19.781v67.594h-11.531v-43.781
		c-2.313,4.063-4.751,7.969-7.313,11.719c-0.813-5-2.063-10.625-3.75-16.875C494.181,169.389,500.088,155.42,504.899,138.42z
		 M513.899,187.732h13.219V167.67h-10.219v-12h10.219v-16.875h12.75v16.875h14.531v-16.875h12.75v16.875h10.406v12h-10.406v20.063
		h13.031v12h-66.281V187.732z M514.088,221.951c6.687-6.438,12.719-13.438,18.094-21l10.594,7.031
		c-5.375,7.188-11.75,14.593-19.125,22.219C521.088,227.764,517.899,225.014,514.088,221.951z M539.868,187.732h14.531V167.67
		h-14.531V187.732z M560.399,201.326c6.499,6.438,13,13.281,19.5,20.531l-10.875,8.156c-5.126-7.125-11.22-14.406-18.281-21.845
		L560.399,201.326z"/>
	<path fill="#FFFFFF" d="M603.149,180.232c0,23.719-3.219,40.5-9.656,50.344c-2.876-2.688-6.405-5.688-10.594-9
		c5.313-8.875,7.938-23.219,7.875-43.031v-29.438h35.953c-1.156-2.875-2.297-5.625-3.422-8.25l15.094-3.563
		c1.406,3.375,2.983,7.313,4.734,11.813h31.828v11.531h-71.813L603.149,180.232L603.149,180.232z M601.463,212.857h44.625
		c3.813-12.25,8.313-27.938,13.5-47.063l13.03,3.375c-3.251,12.219-7.672,26.782-13.266,43.688h15.984v13.031h-73.875
		L601.463,212.857L601.463,212.857z M603.713,172.826l11.25-4.781c5.5,12,10.594,24.375,15.28,37.125l-12.563,4.688
		C613.68,198.17,609.024,185.827,603.713,172.826z M626.774,167.951l11.719-3.469c3.313,8.625,6.906,19.75,10.781,33.375
		l-12.656,3.469C632.931,188.014,629.649,176.889,626.774,167.951z"/>
	<path fill="#FFFFFF" d="M681.149,145.732h36.844l-1.969-7.688l15.75-0.563l0.938,8.25h37.5v10.313h-89.063V145.732z
		 M684.713,164.857h18.563l-5.344-6.563h15.281l4.922,6.563h14.905c2.345-2.813,4.108-5,5.298-6.563h15.188
		c-2,2.25-3.984,4.438-5.953,6.563h19.359v48.188c0,4.344-0.853,7.805-2.556,10.383s-4.063,4.234-7.077,4.969
		c-3.018,0.734-9.462,1.148-19.336,1.242c-0.875-5-1.688-8.906-2.438-11.719c3.563,0.375,7.031,0.563,10.406,0.563
		c5.688,0,8.531-2.625,8.531-7.875v-16.922l-3,3.797l-6.845-4.78v23.25h-26.344v4.5h-11.438v-26.578l-6,4.267
		c-0.095-0.156-1.345-1.797-3.75-4.923v36.328h-12.375v-64.689H684.713z M714.993,175.357l6.75,7.406
		c-2.501,1.938-5.016,3.844-7.547,5.719h24.234l-8.719-5.719l6.094-7.125c6.375,3.594,12.593,7.297,18.656,11.109v-11.953h-57.375
		v13.266C703.649,183.624,709.618,179.389,714.993,175.357z M733.181,205.639v-7.406h-14.906v7.406H733.181z"/>
	<path fill="#FFFFFF" d="M779.118,150.795h13.595v78.281h-13.595V150.795z M791.493,141.514l11.906-4.313
		c3.499,5.813,6.968,12.375,10.406,19.688l-13.031,4.688C797.463,153.889,794.368,147.202,791.493,141.514z M863.868,212.014
		c0,5.5-1.133,9.594-3.397,12.281c-2.268,2.688-5.479,4.266-9.633,4.734c-4.156,0.469-11.782,0.703-22.875,0.703
		c-0.875-4.438-2.032-9.063-3.47-13.875c5.25,0.313,10.75,0.469,16.5,0.469c6.188,0,9.281-2.688,9.281-8.063v-51.938h-34.031
		v-12.563h47.625V212.014z"/>
	<path fill="#FFFFFF" d="M881.306,151.451h31.406c-1.688-3.875-3.157-7-4.406-9.375l13.781-4.594
		c1.563,3.188,3.813,7.844,6.75,13.969h29.813v48.469h-13.031v-4.875h-51.938c-1.5,14.875-5.595,26.656-12.281,35.344
		c-3.626-4.563-6.844-8.406-9.656-11.531c6.375-8.875,9.563-20.562,9.563-35.063L881.306,151.451L881.306,151.451z M945.618,182.389
		v-18.281h-51.28v18.281H945.618z"/>
</g>
<g>
	<g>
		<linearGradient id="SVGID_1_" gradientUnits="userSpaceOnUse" x1="451.1926" y1="340.2373" x2="451.1926" y2="316.787">
			<stop  offset="0.0061" style="stop-color:#DEF567"/>
			<stop  offset="0.4594" style="stop-color:#C9E541"/>
			<stop  offset="1" style="stop-color:#AED00E"/>
		</linearGradient>
		<path fill="url(#SVGID_1_)" d="M523.083,342.724c0.255-1.998,0.238-2.004,2.201-2.006c6.527,0,13.052-0.021,19.578,0.02
			c1.167,0.008,1.85-0.25,2.059-1.533c0.256-1.582,0.661-3.143,1.084-4.689c0.463-1.697,0.383-1.852-1.439-1.854
			c-5.532-0.004-11.065-0.002-16.597-0.002c-1.229,0-2.458,0.006-3.688-0.004c-0.73-0.006-1.232-0.242-0.969-1.113
			c0.357-1.174,0.788-2.328,1.069-3.518c0.303-1.277,0.979-1.691,2.31-1.678c6.665,0.068,13.333,0.014,20.001,0.047
			c1.021,0.006,1.559-0.289,1.759-1.348c0.314-1.67,0.731-3.322,1.164-4.965c0.409-1.545,0.288-1.775-1.29-1.775
			c-15.416-0.008-30.831,0.002-46.245-0.02c-0.978-0.002-1.616,0.34-2.065,1.172c-2.178,4.027-4.364,8.051-6.547,12.076
			c-1.003,1.846-2.007,3.693-3.009,5.539c-0.134,0-0.268,0.002-0.401,0.002c-0.16-0.543-0.391-1.076-0.471-1.629
			c-0.751-5.24-1.506-10.479-2.185-15.727c-0.14-1.08-0.558-1.447-1.622-1.434c-3.828,0.041-7.66,0.041-11.488-0.002
			c-0.987-0.012-1.605,0.357-2.042,1.199c-2.174,4.188-4.358,8.371-6.539,12.555c-0.709,1.357-1.419,2.717-2.128,4.074
			c-0.137-0.004-0.274-0.008-0.414-0.014c-0.171-0.535-0.42-1.059-0.502-1.607c-0.73-4.861-1.479-9.719-2.106-14.592
			c-0.168-1.291-0.681-1.631-1.906-1.621c-6.573,0.047-13.146,0.023-19.718,0.021c-3.926,0-3.828,0.02-4.572,3.891
			c-0.937,4.869-2.045,9.705-3.111,14.547c-0.105,0.48-0.441,0.91-0.746,1.514c-0.355-0.4-0.537-0.551-0.653-0.742
			c-3.597-5.936-7.163-11.893-10.813-17.795c-0.385-0.623-1.244-1.328-1.903-1.348c-4.016-0.125-8.038-0.049-12.056-0.074
			c-0.889-0.006-1.248,0.393-1.402,1.229c-0.461,2.51-1.006,5.004-1.473,7.51c-1.32,7.059-2.608,14.121-3.938,21.176
			c-0.1,0.525-0.43,1.006-0.65,1.508c-0.149-0.025-0.297-0.049-0.445-0.074c-0.152-0.467-0.325-0.928-0.453-1.402
			c-0.473-1.73-0.928-3.465-1.393-5.197c-1.038-3.875-2.07-7.752-3.119-11.623c-1.061-3.92-2.166-7.826-3.195-11.752
			c-0.281-1.074-0.857-1.396-1.926-1.383c-4.35,0.047-8.701,0.045-13.05,0c-1.077-0.012-1.763,0.371-2.315,1.275
			c-7.518,12.283-15.057,24.555-22.577,36.838c-0.239,0.389-0.336,0.865-0.575,1.512c4.727,0,9.164,0.016,13.602-0.031
			c0.294-0.004,0.663-0.422,0.863-0.734c1.122-1.748,2.229-3.508,3.29-5.295c0.537-0.902,1.222-1.307,2.306-1.291
			c3.781,0.051,7.566,0.055,11.349-0.004c1.081-0.018,1.673,0.396,2.022,1.359c0.597,1.641,1.295,3.246,1.814,4.91
			c0.307,0.982,0.874,1.115,1.768,1.113c7.991-0.029,15.982-0.016,23.974-0.016h1.391c1.439-7.006,2.183-13.967,3.864-20.781
			c0.458,0.23,0.701,0.439,0.862,0.699c3.974,6.371,7.956,12.736,11.878,19.139c0.434,0.711,0.855,0.965,1.652,0.957
			c3.688-0.033,7.377-0.049,11.064,0.008c0.963,0.016,1.281-0.33,1.461-1.23c1.713-8.568,3.469-17.127,5.222-25.686
			c0.085-0.414,0.263-0.807,0.394-1.211c0.149,0.006,0.301,0.012,0.449,0.018c0.152,0.756,0.377,1.508,0.445,2.271
			c0.736,8.145,1.459,16.291,2.152,24.439c0.079,0.939,0.274,1.424,1.396,1.402c3.97-0.07,7.943-0.041,11.915-0.016
			c0.731,0.006,1.153-0.17,1.51-0.898c3.145-6.395,6.345-12.76,9.529-19.133c0.705-1.41,1.415-2.82,2.124-4.23
			c0.193,0.002,0.389,0.006,0.582,0.01c1.738,7.963,2.806,16.064,4.507,24.238c4.262,0,8.419,0.018,12.577-0.033
			c0.336-0.004,0.811-0.396,0.974-0.729c0.69-1.395,1.285-2.834,1.916-4.258c2.59-5.867,5.174-11.736,7.775-17.6
			c0.919-2.066,1.884-4.113,2.828-6.17c0.146,0.047,0.29,0.096,0.438,0.145c0,0.305,0.031,0.613-0.006,0.914
			c-1.055,8.68-2.102,17.361-3.194,26.035c-0.162,1.275,0.109,1.736,1.517,1.729c11.82-0.055,23.643-0.029,35.465-0.029h1.36
			c0.328-3.111,0.676-6.107,0.906-9.113c0.021-0.271-0.697-0.826-1.106-0.861c-1.314-0.113-2.645-0.045-3.968-0.045
			c-5.816,0-11.633-0.025-17.449,0.018c-1.282,0.008-1.716-0.439-1.457-1.691C522.767,345.069,522.933,343.896,523.083,342.724z
			 M382.526,343.353c-3.26,0.063-6.521,0.025-9.781-0.004c-0.164,0-0.325-0.158-0.685-0.346c1.593-2.834,3.113-5.539,4.632-8.246
			c0.739-1.318,1.46-2.645,2.22-3.951c0.172-0.295,0.475-0.514,0.717-0.768c0.256,0.307,0.639,0.576,0.744,0.928
			c0.416,1.402,0.744,2.83,1.107,4.248c0.595,2.33,1.227,4.652,1.74,7.002C383.292,342.546,382.779,343.347,382.526,343.353z"/>
		<linearGradient id="SVGID_2_" gradientUnits="userSpaceOnUse" x1="573.8391" y1="340.2373" x2="573.8391" y2="316.787">
			<stop  offset="0.0061" style="stop-color:#DEF567"/>
			<stop  offset="0.4594" style="stop-color:#C9E541"/>
			<stop  offset="1" style="stop-color:#AED00E"/>
		</linearGradient>
		<path fill="url(#SVGID_2_)" d="M585.925,318.364c-0.309,0.004-0.809,0.627-0.879,1.023c-0.35,1.998-0.582,4.018-0.865,6.029
			c-0.539,3.836-1.074,7.674-1.633,11.506c-0.16,1.096-0.936,1.479-1.807,0.883c-0.371-0.256-0.666-0.668-0.914-1.059
			c-3.655-5.734-7.306-11.467-10.926-17.221c-0.569-0.906-1.269-1.268-2.334-1.244c-2.551,0.057-5.104,0.02-7.656,0.02
			c-4.498,0-4.399,0.014-5.117,4.48c-0.921,5.732-1.997,11.443-3.044,17.156c-1.022,5.572-2.096,11.137-3.126,16.709
			c-0.07,0.379,0.035,0.793,0.058,1.164h13.196c0.318-1.811,0.63-3.527,0.921-5.246c0.799-4.752,1.58-9.504,2.396-14.252
			c0.076-0.443,0.364-0.85,0.626-1.434c0.347,0.377,0.524,0.525,0.649,0.715c4.31,6.488,8.604,12.99,12.953,19.453
			c0.291,0.436,1,0.822,1.523,0.832c3.686,0.07,7.373,0.006,11.059,0.059c0.949,0.016,1.313-0.287,1.467-1.217
			c0.57-3.447,1.219-6.881,1.844-10.32c1.451-7.99,2.904-15.98,4.363-23.969c0.084-0.463,0.197-0.924,0.352-1.365
			c0.275-0.785,0.592-1.559,1.049-2.75C594.983,318.317,590.454,318.298,585.925,318.364z"/>
		<linearGradient id="SVGID_3_" gradientUnits="userSpaceOnUse" x1="343.0891" y1="340.2373" x2="343.0891" y2="316.787">
			<stop  offset="0.0061" style="stop-color:#DEF567"/>
			<stop  offset="0.4594" style="stop-color:#C9E541"/>
			<stop  offset="1" style="stop-color:#AED00E"/>
		</linearGradient>
		<path fill="url(#SVGID_3_)" d="M368.113,319.353c-0.041-0.01-0.422-0.158-0.802-0.158c-4.395-0.008-8.79-0.037-13.183,0.057
			c-0.705,0.016-1.549,0.449-2.072,0.957c-3.186,3.094-6.299,6.262-9.434,9.41c-1.008,1.01-1.438,0.949-2.101-0.295
			c-1.573-2.955-3.159-5.904-4.729-8.863c-0.432-0.814-0.998-1.277-2.003-1.268c-4.678,0.035-9.356,0.004-14.034,0.027
			c-0.549,0.004-1.095,0.213-1.689,0.336c0.596,0.807,1.08,1.381,1.475,2.012c3.73,5.959,7.477,11.91,11.126,17.918
			c0.495,0.813,0.752,1.953,0.665,2.9c-0.414,4.563-0.99,9.109-1.49,13.664c-0.063,0.584-0.009,1.18-0.009,1.865
			c4.558,0,8.948-0.018,13.339,0.014c0.934,0.008,0.91-0.613,1.008-1.209c0.795-4.844,1.545-9.699,2.424-14.529
			c0.163-0.898,0.659-1.887,1.308-2.523c5.228-5.129,10.56-10.15,15.788-15.279C365.273,322.843,366.621,321.067,368.113,319.353z"
			/>
	</g>
	<g enable-background="new    ">
		<path fill="#9BCA25" d="M465.583,336.112c-0.137-0.004-0.274-0.008-0.414-0.014c-0.033-0.105-0.071-0.209-0.109-0.314
			c-2.15-0.018-4.32-0.031-6.535-0.031c-2.708,0-5.352,0.018-7.96,0.047c0.621,6.912,1.238,13.826,1.827,20.742
			c0.079,0.939,0.274,1.424,1.396,1.402c3.97-0.07,7.943-0.041,11.915-0.016c0.731,0.006,1.153-0.17,1.51-0.898
			c3.145-6.395,6.345-12.76,9.529-19.133c0.316-0.633,0.635-1.264,0.952-1.895c-3.862-0.104-7.851-0.172-11.942-0.211
			C465.695,335.899,465.639,336.005,465.583,336.112z"/>
		<path fill="#9BCA25" d="M433.253,336.737c-0.105,0.48-0.441,0.91-0.746,1.514c-0.355-0.4-0.537-0.551-0.653-0.742
			c-0.249-0.41-0.496-0.82-0.744-1.23c-10.6,0.42-20.232,1.076-28.973,1.9c-0.619,3.344-1.239,6.688-1.868,10.027
			c-0.1,0.525-0.43,1.006-0.65,1.508c-0.149-0.025-0.297-0.049-0.445-0.074c-0.152-0.467-0.325-0.928-0.453-1.402
			c-0.473-1.73-0.928-3.465-1.393-5.197c-0.38-1.42-0.763-2.838-1.143-4.258c-4.738,0.512-9.199,1.074-13.386,1.674
			c0.141,0.586,0.292,1.172,0.421,1.76c0.072,0.33-0.441,1.131-0.694,1.137c-3.26,0.063-6.521,0.025-9.781-0.004
			c-0.164,0-0.325-0.158-0.685-0.346c0.175-0.311,0.342-0.607,0.516-0.916c-5.332,0.938-10.141,1.932-14.467,2.945
			c-2.322,3.787-4.645,7.574-6.964,11.363c-0.239,0.389-0.336,0.865-0.575,1.512c4.727,0,9.164,0.016,13.602-0.031
			c0.294-0.004,0.663-0.422,0.863-0.734c1.122-1.748,2.229-3.508,3.29-5.295c0.537-0.902,1.222-1.307,2.306-1.291
			c3.781,0.051,7.566,0.055,11.349-0.004c1.081-0.018,1.673,0.396,2.022,1.359c0.597,1.641,1.295,3.246,1.814,4.91
			c0.307,0.982,0.874,1.115,1.768,1.113c7.991-0.029,15.982-0.016,23.974-0.016h1.391c1.439-7.006,2.183-13.967,3.864-20.781
			c0.458,0.23,0.701,0.439,0.862,0.699c3.974,6.371,7.956,12.736,11.878,19.139c0.434,0.711,0.855,0.965,1.652,0.957
			c3.688-0.033,7.377-0.049,11.064,0.008c0.963,0.016,1.281-0.33,1.461-1.23c1.393-6.965,2.814-13.922,4.239-20.881
			c-5.056,0.072-9.916,0.195-14.596,0.365C433.333,336.376,433.293,336.556,433.253,336.737z"/>
		<path fill="#9BCA25" d="M492.459,337.073c-0.134,0-0.268,0.002-0.401,0.002c-0.053-0.18-0.115-0.359-0.176-0.539
			c-3.849-0.188-7.83-0.344-11.937-0.467c1.456,7.191,2.478,14.488,4.009,21.846c4.262,0,8.419,0.018,12.577-0.033
			c0.336-0.004,0.811-0.396,0.974-0.729c0.69-1.395,1.285-2.834,1.916-4.258c2.277-5.158,4.552-10.318,6.836-15.473
			c-4.321-0.324-8.831-0.605-13.529-0.842C492.638,336.745,492.548,336.909,492.459,337.073z"/>
		<path fill="#9BCA25" d="M545.404,347.944c-1.314-0.113-2.645-0.045-3.968-0.045c-5.816,0-11.633-0.025-17.449,0.018
			c-1.282,0.008-1.716-0.439-1.457-1.691c0.237-1.156,0.403-2.33,0.554-3.502c0.255-1.998,0.238-2.004,2.201-2.006
			c3.846,0,7.689-0.004,11.534-0.002c-8.098-1.174-17.161-2.215-27.273-3.037c-0.751,6.182-1.505,12.363-2.283,18.541
			c-0.162,1.275,0.109,1.736,1.517,1.729c11.82-0.055,23.643-0.029,35.465-0.029h1.36c0.328-3.111,0.676-6.107,0.906-9.113
			C546.531,348.534,545.813,347.979,545.404,347.944z"/>
		<path fill="#9BCA25" d="M329.841,356.05c-0.063,0.584-0.009,1.18-0.009,1.865c4.558,0,8.948-0.018,13.339,0.014
			c0.934,0.008,0.91-0.613,1.008-1.209c0.455-2.771,0.901-5.545,1.359-8.314c-6.987,2.145-12.021,4.211-15.497,5.869
			C329.975,354.866,329.906,355.458,329.841,356.05z"/>
		<path fill="#9BCA25" d="M572.43,348.077c1.991,2.996,3.985,5.988,5.993,8.971c0.291,0.436,1,0.822,1.523,0.832
			c3.686,0.07,7.373,0.006,11.059,0.059c0.949,0.016,1.313-0.287,1.467-1.217c0.066-0.404,0.143-0.807,0.211-1.209
			C588.866,353.646,582.362,350.917,572.43,348.077z"/>
		<path fill="#9BCA25" d="M547.623,356.647c-0.07,0.379,0.035,0.793,0.058,1.164h13.196c0.318-1.811,0.63-3.527,0.921-5.246
			c0.39-2.318,0.781-4.633,1.169-6.951c-3.869-0.916-8.119-1.822-12.775-2.691C549.339,347.499,548.47,352.071,547.623,356.647z"/>
	</g>
</g>
</svg>
