<?xml version="1.0" encoding="utf-8"?>
<!-- Generator: Adobe Illustrator 15.0.0, SVG Export Plug-In . SVG Version: 6.00 Build 0)  -->
<!DOCTYPE svg PUBLIC "-//W3C//DTD SVG 1.1//EN" "http://www.w3.org/Graphics/SVG/1.1/DTD/svg11.dtd">
<svg version="1.1" id="图层_1" xmlns="http://www.w3.org/2000/svg" xmlns:xlink="http://www.w3.org/1999/xlink" x="0px" y="0px"
	 width="903.459px" height="96.416px" viewBox="0 0 903.459 96.416" enable-background="new 0 0 903.459 96.416"
	 xml:space="preserve">
<path fill="#0B5698" d="M0.129,0.167L0,97.312c0,0,0,0,138.764-0.003c179.857-0.004,583.876-0.001,763.733-0.001
	c0.325,0,0.65,0.003,0.976,0.004V0.167H0.129z"/>
<path fill="#ACC83E" d="M0-0.036C34.709-0.04,169.132-0.048,203.842-0.049c135.091-0.003,564.174-0.004,699.265-0.005
	c0.244,0,0.488,0.012,0.732,0.018v97.331H336.438c-0.05-1.02-0.099-2.038-0.161-3.309c-1.354,0-2.482,0-3.61,0
	c-21.841,0-43.683,0.009-65.524-0.025c-1.092-0.002-2.192-0.328-3.271-0.581c-0.983-0.23-1.941-0.82-2.91-0.821
	c-24.857-0.044-49.714-0.043-74.571-0.008c-2.53,0.003-5.173,0.449-4.723-3.57H0V74.308h336.284v-3.34
	c-1.167-0.058-2.204-0.152-3.24-0.153c-20.128-0.008-40.256,0.047-60.384-0.056c-3.379-0.017-6.992,1.081-10.114-1.337
	c-0.312-0.242-0.951-0.073-1.438-0.073c-25.018,0.002-50.036-0.006-75.053,0.03c-2.395,0.004-4.825,0.344-4.379-3.386H0v-16.63
	h336.323v-3.115c-1.219-0.06-2.341-0.162-3.464-0.162c-20.291-0.01-40.581,0.036-60.871-0.054c-3.143-0.014-6.519,1.023-9.393-1.329
	c-0.301-0.246-0.948-0.088-1.434-0.088c-24.935,0.002-49.871-0.006-74.806,0.03c-2.538,0.004-5.199,0.449-4.688-3.597H0V26.376
	h336.247c0.323-3.465,0.323-3.477-2.735-3.477c-21.106-0.003-42.212,0.021-63.317-0.027c-2.514-0.007-5.216,0.765-7.443-1.292
	c-0.323-0.298-1.098-0.137-1.664-0.137c-24.936-0.001-49.872,0.004-74.808,0.007c-3.743,0.001-3.743,0.001-5.006-3.39H0V-0.036z"/>
<path fill="#0B5698" d="M0,65.993h181.675c-0.445,3.729,1.985,3.39,4.379,3.386c25.017-0.036,50.035-0.028,75.053-0.03
	c0.487,0,1.127-0.168,1.438,0.073c3.122,2.418,6.735,1.32,10.114,1.337c20.128,0.102,40.256,0.048,60.384,0.057
	c1.037,0,2.073,0.095,3.24,0.152v3.34H0V65.993z"/>
<path fill="#0B5698" d="M0,18.061h181.272c1.264,3.391,1.264,3.391,5.006,3.39c24.936-0.003,49.872-0.008,74.808-0.007
	c0.566,0,1.341-0.161,1.664,0.137c2.227,2.057,4.929,1.285,7.443,1.291c21.105,0.05,42.211,0.025,63.317,0.028
	c3.059,0,3.059,0.012,2.735,3.477H0V18.061z"/>
<path fill="#0B5698" d="M0,41.049h181.666c-0.51,4.045,2.15,3.601,4.688,3.597c24.936-0.036,49.871-0.028,74.806-0.03
	c0.486,0,1.133-0.158,1.434,0.088c2.874,2.353,6.25,1.315,9.393,1.33c20.29,0.089,40.581,0.043,60.871,0.053
	c1.123,0,2.246,0.103,3.464,0.162v3.115H0V41.049z"/>
<polygon fill="#0B5698" points="398.697,64.947 398.697,70.15 372.298,70.15 372.298,25.575 397.091,25.575 397.091,30.713 
	378.079,30.713 378.079,44.522 395.807,44.522 395.807,49.404 378.079,49.404 378.079,64.947 "/>
<polygon fill="#0B5698" points="414.947,52.487 403.707,35.467 409.873,35.467 418.608,49.147 418.993,49.147 427.6,35.467 
	433.702,35.467 422.526,52.358 434.344,70.15 428.05,70.15 418.929,55.827 418.544,55.827 409.166,70.15 403,70.15 "/>
<path fill="#0B5698" d="M457.851,34.824c2.911,0,5.299,0.439,7.162,1.316c1.862,0.879,3.317,2.11,4.367,3.693
	c1.049,1.585,1.776,3.479,2.184,5.685c0.407,2.206,0.61,4.636,0.61,7.29c0,2.398-0.203,4.679-0.61,6.84
	c-0.407,2.163-1.135,4.068-2.184,5.717c-1.05,1.649-2.505,2.966-4.367,3.95c-1.863,0.984-4.251,1.478-7.162,1.478
	c-3.383,0-5.92-0.601-7.611-1.799c-1.692-1.198-2.902-2.826-3.629-4.881v18.883h-5.524V35.467h5.524v6.229
	c0.727-2.055,1.948-3.714,3.661-4.978C451.984,35.456,454.511,34.824,457.851,34.824 M457.145,66.104
	c2.055,0,3.693-0.374,4.913-1.124c1.221-0.748,2.152-1.744,2.794-2.986c0.643-1.241,1.06-2.665,1.252-4.271
	c0.193-1.605,0.29-3.243,0.29-4.913c0-1.841-0.107-3.564-0.321-5.171c-0.215-1.605-0.643-3.019-1.285-4.239
	c-0.642-1.22-1.573-2.184-2.794-2.89c-1.22-0.707-2.837-1.061-4.849-1.061c-2.099,0-3.833,0.312-5.203,0.932
	c-1.371,0.621-2.473,1.51-3.308,2.665c-0.835,1.157-1.424,2.56-1.767,4.207c-0.343,1.649-0.513,3.501-0.513,5.557
	c0,2.013,0.17,3.832,0.513,5.459c0.342,1.628,0.932,3.02,1.767,4.176c0.835,1.155,1.937,2.055,3.308,2.697
	C453.312,65.782,455.046,66.104,457.145,66.104"/>
<path fill="#0B5698" d="M499.086,34.824l-0.192,5.01h-0.771c-1.114,0-2.206,0.107-3.275,0.321c-1.071,0.215-2.078,0.61-3.019,1.188
	c-0.942,0.578-1.799,1.359-2.569,2.344c-0.771,0.986-1.392,2.248-1.863,3.79V70.15h-5.523V35.467h5.523v6.294
	c0.557-1.455,1.242-2.634,2.056-3.532c0.813-0.899,1.712-1.605,2.698-2.12c0.983-0.514,2.022-0.855,3.114-1.027
	c1.092-0.171,2.152-0.257,3.18-0.257H499.086z"/>
<path fill="#0B5698" d="M532.549,49.34c0,0.472-0.032,1.06-0.096,1.767c-0.064,0.706-0.14,1.467-0.226,2.28l-23.507,1.477
	c0,1.885,0.192,3.523,0.577,4.914c0.386,1.392,1.006,2.537,1.863,3.437c0.855,0.899,1.99,1.573,3.404,2.022
	c1.413,0.45,3.168,0.675,5.267,0.675c1.927,0,3.886-0.214,5.877-0.643c1.991-0.428,3.65-0.963,4.978-1.605v5.074
	c-0.514,0.257-1.178,0.514-1.991,0.771c-0.814,0.257-1.734,0.482-2.762,0.675c-1.028,0.192-2.131,0.342-3.308,0.449
	c-1.179,0.106-2.388,0.161-3.629,0.161c-2.569,0-4.85-0.289-6.841-0.867s-3.672-1.563-5.042-2.955
	c-1.371-1.391-2.408-3.232-3.115-5.523c-0.706-2.29-1.06-5.171-1.06-8.639c0-3.469,0.354-6.348,1.06-8.639
	c0.707-2.291,1.734-4.132,3.083-5.524c1.35-1.391,2.997-2.376,4.946-2.954c1.947-0.578,4.163-0.867,6.647-0.867
	c2.954,0,5.341,0.439,7.161,1.316c1.82,0.879,3.222,2.014,4.207,3.404c0.984,1.393,1.648,2.954,1.991,4.688
	C532.377,45.968,532.549,47.67,532.549,49.34 M527.09,49.404c0-1.327-0.087-2.602-0.257-3.821c-0.172-1.221-0.546-2.291-1.124-3.212
	c-0.578-0.92-1.425-1.647-2.537-2.184c-1.114-0.535-2.612-0.803-4.496-0.803c-2.014,0-3.651,0.257-4.914,0.771
	s-2.259,1.264-2.986,2.248c-0.729,0.985-1.242,2.184-1.542,3.597s-0.471,2.998-0.513,4.753L527.09,49.404z"/>
<path fill="#0B5698" d="M550.148,70.535c-0.857,0-1.767-0.031-2.729-0.096c-0.964-0.064-1.917-0.14-2.858-0.225
	c-0.942-0.086-1.81-0.203-2.602-0.354c-0.793-0.149-1.424-0.289-1.895-0.418V64.69c0.599,0.172,1.316,0.344,2.151,0.515
	c0.835,0.172,1.702,0.32,2.602,0.449c0.899,0.128,1.809,0.225,2.729,0.289s1.767,0.096,2.537,0.096c2.655,0,4.657-0.374,6.006-1.123
	s2.022-2.152,2.022-4.207c0-1.028-0.096-1.873-0.288-2.537c-0.193-0.664-0.568-1.221-1.124-1.67
	c-0.558-0.45-1.339-0.846-2.345-1.188c-1.007-0.343-2.345-0.707-4.015-1.092c-1.927-0.428-3.512-0.921-4.753-1.478
	c-1.242-0.556-2.227-1.221-2.954-1.991c-0.729-0.771-1.243-1.69-1.542-2.762c-0.3-1.069-0.449-2.333-0.449-3.79
	c0-2.825,1.038-5.095,3.114-6.808c2.077-1.712,5.192-2.569,9.347-2.569c1.669,0,3.328,0.107,4.978,0.321
	c1.647,0.215,2.9,0.492,3.757,0.835l-0.385,4.688c-0.986-0.386-2.206-0.707-3.661-0.964c-1.456-0.257-2.998-0.385-4.625-0.385
	c-2.44,0-4.271,0.343-5.491,1.027c-1.221,0.686-1.831,2.014-1.831,3.982c0,0.899,0.097,1.628,0.289,2.184
	c0.193,0.557,0.524,1.039,0.996,1.445c0.47,0.407,1.134,0.75,1.991,1.027c0.855,0.279,1.969,0.568,3.34,0.867
	c1.969,0.473,3.649,0.975,5.042,1.51c1.391,0.536,2.515,1.199,3.372,1.991c0.855,0.793,1.477,1.766,1.862,2.922
	c0.385,1.156,0.578,2.569,0.578,4.239c0,3.469-1.124,6.006-3.372,7.611S554.429,70.535,550.148,70.535"/>
<path fill="#0B5698" d="M580.913,70.535c-0.856,0-1.766-0.031-2.729-0.096c-0.963-0.064-1.917-0.14-2.858-0.225
	c-0.942-0.086-1.809-0.203-2.601-0.354c-0.793-0.149-1.425-0.289-1.896-0.418V64.69c0.6,0.172,1.317,0.344,2.152,0.515
	c0.835,0.172,1.701,0.32,2.601,0.449c0.899,0.128,1.809,0.225,2.729,0.289s1.767,0.096,2.538,0.096c2.654,0,4.656-0.374,6.005-1.123
	s2.023-2.152,2.023-4.207c0-1.028-0.097-1.873-0.289-2.537s-0.568-1.221-1.124-1.67c-0.557-0.45-1.339-0.846-2.345-1.188
	s-2.344-0.707-4.014-1.092c-1.927-0.428-3.512-0.921-4.753-1.478c-1.243-0.556-2.228-1.221-2.955-1.991
	c-0.729-0.771-1.242-1.69-1.541-2.762c-0.301-1.069-0.45-2.333-0.45-3.79c0-2.825,1.038-5.095,3.115-6.808
	c2.077-1.712,5.191-2.569,9.346-2.569c1.67,0,3.329,0.107,4.978,0.321c1.648,0.215,2.9,0.492,3.758,0.835l-0.386,4.688
	c-0.985-0.386-2.206-0.707-3.661-0.964c-1.456-0.257-2.998-0.385-4.624-0.385c-2.441,0-4.271,0.343-5.492,1.027
	c-1.22,0.686-1.83,2.014-1.83,3.982c0,0.899,0.096,1.628,0.289,2.184c0.192,0.557,0.523,1.039,0.995,1.445
	c0.471,0.407,1.134,0.75,1.991,1.027c0.856,0.279,1.969,0.568,3.34,0.867c1.969,0.473,3.65,0.975,5.042,1.51
	c1.391,0.536,2.515,1.199,3.372,1.991c0.856,0.793,1.478,1.766,1.862,2.922c0.386,1.156,0.579,2.569,0.579,4.239
	c0,3.469-1.124,6.006-3.373,7.611C588.459,69.732,585.194,70.535,580.913,70.535"/>
<rect id="_x3C_切片_x3E__1_" x="0.459" y="-0.584" fill="none" width="903" height="97"/>
</svg>
